# xmcd CD database file
# Copyright (C) 1997 Ti Kan
# 
# Track frame offsets:
#     150
#     15330
#     29537
#     49020
#     64550
#     75075
#     93910
#     110125
#     123120
#     138075
#     153295
#     175690
# 
# Disc length: 2531 seconds
# 
# Revision: 1
# Processed by: cddbd v1.4b41PL1 Copyright (c) Steve Scherf et al.
# Submitted via: DiscPlay 4.0.3
# 
DISCID=8009e10c
DTITLE=David Lee Murphy - We Can't All Be Angels
DYEAR=1900
DGENRE=
TTITLE0=She Don't Try (To make Me Love Her)
TTITLE1=Just Don't Wait Around
TTITLE2=We Can't All Be Angels
TTITLE3=Bringin' Her Back
TTITLE4=Kentucky Girl
TTITLE5=That's Behind me
TTITLE6=I Could Believe Anything
TTITLE7=All Lit Up On Love
TTITLE8=Almost Like Being There
TTITLE9=Velvet Lies
TTITLE10=She's Not Mine
TTITLE11=Just Don't Wait Around
EXTD=
EXTT0=
EXTT1=
EXTT2=
EXTT3=
EXTT4=
EXTT5=
EXTT6=
EXTT7=
EXTT8=
EXTT9=
EXTT10=
EXTT11=
PLAYORDER=
